# xmcd
#
# Track frame offsets: 
#        150
#        19660
#        32306
#        46138
#        67077
#        88485
#        105578
#        122830
#        132945
#        147912
#        156181
#        168904
#
# Disc length: 2428 seconds
#
# Revision: 0
# Processed by: cddbd v1.5.2PL0 Copyright (c) Steve Scherf et al.
# Submitted via: ExactAudioCopy v1.0b4
#
DISCID=9e097a0c
DTITLE=Paul Lamb - After Hours - The Country Blues Sessions
DYEAR=2016
DGENRE=Blues
TTITLE0=Stranger Blues
TTITLE1=May Day Blues
TTITLE2=Quit That Woman
TTITLE3=She's Fine Like Summer Wine
TTITLE4=Down By The Riverside
TTITLE5=Mystery Train
TTITLE6=Sugar Mama
TTITLE7=Back Door - Mule To Ride
TTITLE8=Comin' Down From Newcastle
TTITLE9=Don't Get Around Much Anymore
TTITLE10=Preachin' The Blues
TTITLE11=Jammin' With The Preacher
EXTD=
EXTT0=
EXTT1=
EXTT2=
EXTT3=
EXTT4=
EXTT5=
EXTT6=
EXTT7=
EXTT8=
EXTT9=
EXTT10=
EXTT11=
PLAYORDER=
